<?xml version="1.0" encoding="UTF-8" standalone="no"?>
<!-- Created with Inkscape (http://www.inkscape.org/) -->

<svg
   width="197.59035mm"
   height="197.59035mm"
   viewBox="0 0 197.59035 197.59035"
   version="1.1"
   id="svg15405"
   sodipodi:docname="MSA.svg"
   inkscape:version="1.1 (c68e22c387, 2021-05-23)"
   xmlns:inkscape="http://www.inkscape.org/namespaces/inkscape"
   xmlns:sodipodi="http://sodipodi.sourceforge.net/DTD/sodipodi-0.dtd"
   xmlns="http://www.w3.org/2000/svg"
   xmlns:svg="http://www.w3.org/2000/svg"
   xmlns:rdf="http://www.w3.org/1999/02/22-rdf-syntax-ns#"
   xmlns:cc="http://creativecommons.org/ns#"
   xmlns:dc="http://purl.org/dc/elements/1.1/">
  <title
     id="title62647">UVIC MSA logo</title>
  <sodipodi:namedview
     id="namedview15407"
     pagecolor="#ffffff"
     bordercolor="#666666"
     borderopacity="1.0"
     inkscape:pageshadow="2"
     inkscape:pageopacity="0.0"
     inkscape:pagecheckerboard="0"
     inkscape:document-units="mm"
     showgrid="false"
     inkscape:zoom="0.93076508"
     inkscape:cx="276.65413"
     inkscape:cy="299.7534"
     inkscape:window-width="1920"
     inkscape:window-height="1043"
     inkscape:window-x="0"
     inkscape:window-y="0"
     inkscape:window-maximized="1"
     inkscape:current-layer="layer1"
     fit-margin-top="0"
     fit-margin-left="0"
     fit-margin-right="0"
     fit-margin-bottom="0" />
  <defs
     id="defs15402">
    <rect
       x="262.23035"
       y="345.80261"
       width="296.06079"
       height="296.06076"
       id="rect180662" />
  </defs>
  <g
     inkscape:label="Layer 1"
     inkscape:groupmode="layer"
     id="layer1"
     transform="translate(-9.7529789,-31.864807)">
    <path
       style="opacity:1;fill:#ef0000;fill-opacity:0.0190549;stroke:#000000;stroke-width:0;stroke-miterlimit:4;stroke-dasharray:none;stroke-opacity:1;paint-order:fill markers stroke;stop-color:#000000"
       d="M 783.39258,493.83398 674.10547,384.54688 V 229.99023 H 519.55078 L 410.26172,120.70117 300.97266,229.99023 H 146.41797 V 384.54492 L 37.128906,493.83398 146.41797,603.12305 V 757.67773 H 300.97461 L 410.26172,866.96484 519.54883,757.67773 H 674.10547 V 603.12109 Z M 607.99609,691.56836 V 575.73828 l 81.9043,-81.9043 -81.9043,-81.90429 V 296.09766 H 492.16602 l -81.9043,-81.9043 -81.9043,81.9043 H 212.52539 v 115.83203 l -81.9043,81.90429 81.9043,81.90435 v 115.83008 h 115.83203 l 81.9043,81.9043 81.9043,-81.9043 z"
       transform="scale(0.26458333)"
       id="rect16894"
       sodipodi:nodetypes="cccccccccccccccccccccccccccccccccc" />
    <path
       style="fill:none;stroke:#000000;stroke-width:0;stroke-linecap:butt;stroke-linejoin:miter;stroke-miterlimit:4;stroke-dasharray:none;stroke-opacity:1"
       d="m 137.46447,60.851581 -7.24555,17.490924"
       id="path118308" />
    <path
       style="fill:none;stroke:#000000;stroke-width:0;stroke-linecap:butt;stroke-linejoin:miter;stroke-miterlimit:4;stroke-dasharray:none;stroke-opacity:1"
       d="M 86.8779,78.342505 79.632349,60.851581"
       id="path118310" />
    <path
       style="fill:none;stroke:#000000;stroke-width:0;stroke-linecap:butt;stroke-linejoin:miter;stroke-miterlimit:4;stroke-dasharray:none;stroke-opacity:1"
       d="M 56.230675,108.98973 38.739754,101.74418"
       id="path118312" />
    <path
       style="fill:none;stroke:#000000;stroke-width:0;stroke-linecap:butt;stroke-linejoin:miter;stroke-miterlimit:4;stroke-dasharray:none;stroke-opacity:1"
       d="M 56.230675,152.33075 38.739754,159.5763"
       id="path118314" />
    <path
       style="fill:none;stroke:#000000;stroke-width:0;stroke-linecap:butt;stroke-linejoin:miter;stroke-miterlimit:4;stroke-dasharray:none;stroke-opacity:1"
       d="m 86.8779,182.97746 -7.245035,17.49143"
       id="path118316" />
    <path
       style="fill:none;stroke:#000000;stroke-width:0;stroke-linecap:butt;stroke-linejoin:miter;stroke-miterlimit:4;stroke-dasharray:none;stroke-opacity:1"
       d="m 137.46396,200.46889 -7.24504,-17.49143"
       id="path118318" />
    <path
       style="fill:none;stroke:#000000;stroke-width:0;stroke-linecap:butt;stroke-linejoin:miter;stroke-miterlimit:4;stroke-dasharray:none;stroke-opacity:1"
       d="m 178.35707,159.57578 -17.49144,-7.24503"
       id="path118320" />
    <path
       style="fill:none;stroke:#000000;stroke-width:0;stroke-linecap:butt;stroke-linejoin:miter;stroke-miterlimit:4;stroke-dasharray:none;stroke-opacity:1"
       d="m 160.86563,108.98973 17.49144,-7.24504"
       id="path118322" />
    <path
       style="opacity:1;fill:#ef0000;fill-opacity:0.0190549;stroke:#000000;stroke-width:0;stroke-miterlimit:4;stroke-dasharray:none;stroke-opacity:1;paint-order:fill markers stroke;stop-color:#000000"
       d="M 182.37112,130.55758 160.72411,108.91057 V 78.296809 H 130.11073 L 108.46334,56.64941 86.81594,78.296809 H 56.202566 v 30.613381 l -21.647399,21.64739 21.647399,21.6474 v 30.61338 h 30.613761 l 21.647013,21.64701 21.647,-21.64701 h 30.61377 v -30.61377 z m -34.7416,39.16618 v -22.94301 l 16.22317,-16.22317 -16.22317,-16.22316 V 91.391019 H 124.68651 L 108.46334,75.167848 92.240168,91.391019 H 69.296774 v 22.943401 l -16.223171,16.22316 16.223171,16.22318 v 22.94301 h 22.943394 l 16.223172,16.22317 16.22317,-16.22317 z"
       id="path132696"
       sodipodi:nodetypes="cccccccccccccccccccccccccccccccccc" />
    <path
       style="fill:#eaaa00;fill-opacity:1;stroke:none;stroke-width:0;stroke-miterlimit:4;stroke-dasharray:none"
       d="M 355.90009,811.42924 301.9303,757.4414 314.76411,726.52264 c 7.05859,-17.00532 13.15858,-31.44425 13.55552,-32.08651 0.41813,-0.67655 17.83639,15.94248 41.40857,39.50853 l 40.68685,40.67629 40.77798,-40.76738 c 27.64599,-27.63881 40.97199,-40.26577 41.38042,-39.20975 0.33134,0.8567 6.34733,15.33662 13.36885,32.1776 l 12.7664,30.61998 -53.87423,53.98784 c -29.63084,29.69331 -54.11958,53.98784 -54.41942,53.98784 -0.29984,0 -24.83157,-24.29453 -54.51496,-53.98784 z"
       id="path137455"
       transform="scale(0.26458333)" />
    <path
       style="fill:#eaaa00;fill-opacity:1;stroke:none;stroke-width:0;stroke-miterlimit:4;stroke-dasharray:none"
       d="m 315.05126,261.88606 -13.17334,-31.93552 53.996,-54.00394 53.996,-54.00395 53.99182,53.98388 c 29.6955,29.69113 53.99181,54.47015 53.99181,55.06448 0,0.88421 -6.80696,17.56538 -24.31477,59.5859 l -1.54833,3.71613 -40.78769,-40.7771 -40.78771,-40.77712 -40.56326,40.55273 c -22.3098,22.30401 -40.80265,40.54762 -41.09523,40.54138 -0.29257,-0.006 -6.45996,-14.38234 -13.7053,-31.94687 z"
       id="path137605"
       transform="scale(0.26458333)" />
    <path
       style="fill:#005eb8;fill-opacity:1;stroke:none;stroke-width:0;stroke-miterlimit:4;stroke-dasharray:none"
       d="m 519.23778,755.02403 c -0.38341,-1.0341 -6.35251,-15.53829 -13.26467,-32.23155 l -12.56756,-30.35137 h 57.88536 57.88536 v -57.59455 c 0,-53.81811 0.12004,-57.54848 1.83074,-56.89202 1.00691,0.38639 15.5111,6.35487 32.23155,13.2633 l 30.40081,12.56078 v 76.56279 76.56279 h -76.85225 c -72.21079,0 -76.89434,-0.11355 -77.54934,-1.88017 z"
       id="path141386"
       transform="scale(0.26458333)" />
    <path
       style="fill:#005eb8;fill-opacity:1;stroke:none;stroke-width:0;stroke-miterlimit:4;stroke-dasharray:none"
       d="m 179.42229,397.32376 -31.69436,-13.1128 -0.27571,-76.8777 -0.2757,-76.87769 h 76.59312 76.59313 l 12.59343,30.54642 c 6.92639,16.80053 12.88442,31.30473 13.24007,32.23155 0.5824,1.51767 -5.07597,1.68513 -56.93864,1.68513 h -57.58529 l -0.27785,57.75895 -0.27785,57.75894 z"
       id="path141536"
       transform="scale(0.26458333)" />
    <path
       style="fill:#d22630;fill-opacity:1;stroke:none;stroke-width:0;stroke-miterlimit:4;stroke-dasharray:none"
       d="m 608.91709,352.66686 -0.27801,-57.211 -57.211,-0.27801 c -31.46605,-0.1529 -57.21453,-0.63638 -57.21885,-1.07438 -0.004,-0.43801 5.85518,-14.93797 13.02111,-32.22214 l 13.02895,-31.42576 h 76.69004 76.69004 v 76.69004 76.69004 l -31.42576,13.02896 c -17.28417,7.16592 -31.78413,13.02541 -32.22214,13.02109 -0.438,-0.004 -0.92148,-25.75279 -1.07438,-57.21884 z"
       id="path147969"
       transform="scale(0.26458333)" />
    <path
       style="fill:#d22630;fill-opacity:1;stroke:none;stroke-width:0;stroke-miterlimit:4;stroke-dasharray:none"
       d="m 147.19074,680.29177 v -76.61242 l 30.35137,-12.53165 c 16.69326,-6.8924 31.19746,-12.83855 32.23155,-13.21366 1.77574,-0.64414 1.88018,2.51702 1.88018,56.91252 v 57.59455 h 57.59454 c 54.39551,0 57.55666,0.10443 56.91252,1.88017 -0.37511,1.0341 -6.32126,15.53829 -13.21366,32.23155 L 300.4156,756.9042 h -76.61243 -76.61243 z"
       id="path148119"
       transform="scale(0.26458333)" />
    <path
       style="fill:#002e5d;fill-opacity:1;stroke:none;stroke-width:0;stroke-miterlimit:4;stroke-dasharray:none"
       d="m 641.94501,589.05104 c -17.13644,-7.14025 -31.37756,-13.16675 -31.64694,-13.39221 -0.26938,-0.22546 17.85848,-18.76296 40.28413,-41.19443 l 40.77392,-40.78451 -40.67629,-40.68686 c -22.37196,-22.37777 -40.25809,-40.93645 -39.74694,-41.24152 2.0634,-1.2315 61.29644,-25.51012 62.23756,-25.51012 0.55775,0 25.30683,24.29632 54.99796,53.99182 l 53.98388,53.99181 -53.99182,53.98387 c -29.69549,29.69113 -54.23177,53.94801 -54.52505,53.90416 -0.29328,-0.0439 -14.55397,-5.92175 -31.69041,-13.06201 z"
       id="path153109"
       transform="scale(0.26458333)" />
    <path
       style="fill:#002e5d;fill-opacity:1;stroke:none;stroke-width:0;stroke-miterlimit:4;stroke-dasharray:none"
       d="m 92.396771,547.936 -54.250792,-54.25878 54.253783,-54.14645 54.253788,-54.14646 30.61997,12.76737 c 16.84098,7.02205 31.32091,13.03847 32.1776,13.36981 1.05603,0.40844 -11.57094,13.73444 -39.20974,41.38042 l -40.76739,40.77798 40.77392,40.78451 c 22.42565,22.43147 40.55351,40.95754 40.28413,41.16903 -0.26938,0.21148 -14.46317,6.15299 -31.54175,13.20333 -17.07859,7.05035 -31.34239,12.94014 -31.69734,13.08841 -0.35497,0.14828 -25.05824,-24.14685 -54.896179,-53.98917 z"
       id="path153259"
       transform="scale(0.26458333)" />
    <path
       style="fill:#a0a0a0;stroke:none;stroke-width:0;stroke-miterlimit:4;stroke-dasharray:none"
       d="M 369.0513,731.11903 328.23521,690.29234 H 271.0189 213.80261 v -57.2163 -57.21631 l -40.8267,-40.81609 -40.8267,-40.81609 40.8267,-40.83703 40.8267,-40.83703 v -57.74303 -57.74302 h 57.74296 57.74296 l 40.56326,-40.55273 40.56326,-40.55273 40.56327,40.55273 40.56326,40.55273 h 57.74296 57.74296 v 57.74296 57.74296 l 40.55274,40.56326 40.55272,40.56327 -40.55272,40.56326 -40.55274,40.56327 v 57.74296 57.74296 h -57.74302 -57.74303 l -40.83702,40.82669 -40.83703,40.8267 z m 74.66969,-59.58004 28.4712,-28.50947 43.24399,-0.005 43.244,-0.005 v -43.28798 -43.28798 l 30.61997,-30.55083 c 16.84098,-16.80296 30.61997,-31.04881 30.61997,-31.65745 0,-0.60863 -13.77899,-14.87923 -30.61997,-31.71244 l -30.61997,-30.60583 v -43.25106 -43.25107 h -43.23716 -43.23718 l -30.89539,-30.88162 -30.8954,-30.88162 -30.8954,30.88162 -30.89539,30.88162 H 304.8499 261.07554 v 43.77436 43.77436 l -30.62009,30.63375 -30.62009,30.63375 30.62009,30.60595 30.62009,30.60595 v 43.78826 43.78826 h 43.78826 43.78826 l 30.53981,30.55392 30.53981,30.55391 2.75905,-2.03938 c 1.51749,-1.12166 15.5711,-14.86865 31.23026,-30.54886 z"
       id="path158405"
       transform="scale(0.26458333)" />
    <path
       style="fill:#414143;fill-opacity:1;stroke:none;stroke-width:0;stroke-miterlimit:4;stroke-dasharray:none"
       d="m 369.58849,730.58184 -40.27876,-40.2895 h -57.75356 -57.75356 v -57.75357 -57.75356 l -40.28951,-40.27876 -40.2895,-40.27876 40.2895,-40.29998 40.28951,-40.29997 v -58.28015 -58.28015 h 58.28008 58.28008 l 40.02615,-40.01547 40.02613,-40.01546 40.02614,40.01546 40.02615,40.01547 h 58.28007 58.28009 v 58.28009 58.28007 l 40.01547,40.02615 40.01547,40.02614 -40.01547,40.02613 -40.01547,40.02615 v 58.28008 58.28009 H 548.74735 490.4672 l -40.29997,40.2895 -40.29997,40.28951 z m 72.96509,-56.94247 30.88202,-30.61997 42.35369,4.8e-4 42.3537,4.8e-4 -0.30375,-43.5982 c -0.18024,-25.86964 0.0922,-43.35352 0.6699,-42.99646 1.29042,0.79753 61.41098,-60.07454 61.41098,-62.1786 0,-2.10021 -60.10593,-63.0452 -61.39283,-62.24985 -0.5717,0.35332 -0.84923,-17.27834 -0.67673,-42.99212 l 0.29243,-43.5911 -42.43149,3.7e-4 -42.4315,3.6e-4 -31.43247,-31.41893 -31.43248,-31.41893 -31.43247,31.41893 -31.43248,31.41893 h -43.23728 -43.23728 v 43.25107 43.25106 l -30.61997,30.60583 c -16.84098,16.83321 -30.61997,31.09567 -30.61997,31.69436 0,0.59869 13.77899,14.86115 30.61997,31.69436 l 30.61997,30.60583 v 43.25106 43.25107 h 43.25107 43.25106 l 30.60584,30.61997 c 16.8332,16.84098 31.25434,30.61997 32.04695,30.61997 0.79262,0 15.33802,-13.77899 32.32312,-30.61997 z"
       id="path165858"
       transform="scale(0.26458333)" />
    <text
       xml:space="preserve"
       transform="matrix(0.26458333,0,0,0.26458333,-3.6666666e-8,1.0583333)"
       id="text180660"
       style="font-style:normal;font-variant:normal;font-weight:normal;font-stretch:normal;font-size:26.6667px;line-height:1.15;font-family:Myriad;-inkscape-font-specification:Myriad;text-align:center;white-space:pre;shape-inside:url(#rect180662)"
       x="251.68176"
       y="0"><tspan
         x="266.56516"
         y="372.20273"
         id="tspan9197"><tspan
           style="font-weight:600;font-size:32px;font-family:'Myriad Pro';-inkscape-font-specification:'Myriad Pro Semi-Bold';fill:#414143"
           id="tspan9193">University of Victoria</tspan><tspan
           style="fill:#414143"
           id="tspan9195">
</tspan></tspan><tspan
         x="410.26074"
         y="404.86317"
         id="tspan9201"><tspan
           style="fill:#414143"
           id="tspan9199">
</tspan></tspan><tspan
         x="410.26074"
         y="435.52988"
         id="tspan9205"><tspan
           style="fill:#414143"
           id="tspan9203">
</tspan></tspan><tspan
         x="271.89321"
         y="514.33613"
         id="tspan9211"><tspan
           style="font-weight:bold;font-stretch:condensed;font-size:85.3333px;font-family:'Myriad Pro';-inkscape-font-specification:'Myriad Pro Bold Condensed';fill:#414143"
           id="tspan9207">UVIC MSA</tspan><tspan
           style="font-size:53.3333px;fill:#414143"
           id="tspan9209">
</tspan></tspan><tspan
         x="410.26074"
         y="573.23401"
         id="tspan9215"><tspan
           style="font-size:37.3333px"
           id="tspan9213">
</tspan></tspan><tspan
         x="275.50923"
         y="629.52355"
         id="tspan9221"><tspan
           style="font-weight:600;font-size:21.3333px;font-family:'Myriad Pro';-inkscape-font-specification:'Myriad Pro Semi-Bold';fill:#414143"
           id="tspan9217">Muslim Students' Association</tspan><tspan
           style="font-size:53.3333px;fill:#414143"
           id="tspan9219">
</tspan></tspan><tspan
         x="262.23047"
         y="686.38409"
         id="tspan9225"><tspan
           style="font-size:53.3333px;fill:#414143"
           id="tspan9223">
</tspan></tspan></text>
    <path
       style="fill:none;stroke:#414143;stroke-width:1.465;stroke-linecap:round;stroke-linejoin:round;stroke-opacity:1;stroke-miterlimit:4;stroke-dasharray:none"
       d="M 73.276068,108.80495 H 143.42274"
       id="path62088" />
    <path
       style="fill:none;stroke:#414143;stroke-width:1.465;stroke-linecap:round;stroke-linejoin:round;stroke-miterlimit:4;stroke-dasharray:none;stroke-opacity:1"
       d="M 73.276068,153.7844 H 143.42274"
       id="path62359" />
  </g>
  <metadata
     id="metadata62645">
    <rdf:RDF>
      <cc:Work
         rdf:about="">
        <dc:title>UVIC MSA logo</dc:title>
        <dc:creator>
          <cc:Agent>
            <dc:title>Ahmed M. Farrag</dc:title>
          </cc:Agent>
        </dc:creator>
        <dc:rights>
          <cc:Agent>
            <dc:title>CC</dc:title>
          </cc:Agent>
        </dc:rights>
      </cc:Work>
    </rdf:RDF>
  </metadata>
</svg>
